<?xml version="1.0" encoding="UTF-8" standalone="no"?>
<svg width="456" height="456" viewBox="0 0 456 456" version="1.1" xmlns="http://www.w3.org/2000/svg">
    <!-- Glasses frame - front view -->
    <!-- Left lens -->
    <rect x="78" y="155" width="120" height="95" rx="24" ry="24"
          fill="none" stroke="#1A2744" stroke-width="12" stroke-linecap="round"/>
    <!-- Right lens -->
    <rect x="258" y="155" width="120" height="95" rx="24" ry="24"
          fill="none" stroke="#1A2744" stroke-width="12" stroke-linecap="round"/>
    <!-- Bridge -->
    <path d="M198 195 Q228 178 258 195"
          fill="none" stroke="#1A2744" stroke-width="12" stroke-linecap="round"/>
    <!-- Left arm -->
    <line x1="78" y1="193" x2="50" y2="184"
          stroke="#1A2744" stroke-width="12" stroke-linecap="round"/>
    <!-- Right arm -->
    <line x1="378" y1="193" x2="406" y2="184"
          stroke="#1A2744" stroke-width="12" stroke-linecap="round"/>

    <!-- Audio waveform bars -->
    <g fill="#1A2744" opacity="0.85">
        <rect x="152" y="300" width="10" height="44" rx="5" ry="5"/>
        <rect x="174" y="288" width="10" height="68" rx="5" ry="5"/>
        <rect x="196" y="296" width="10" height="52" rx="5" ry="5"/>
        <rect x="218" y="282" width="10" height="80" rx="5" ry="5"/>
        <rect x="240" y="292" width="10" height="60" rx="5" ry="5"/>
        <rect x="262" y="286" width="10" height="72" rx="5" ry="5"/>
        <rect x="284" y="300" width="10" height="44" rx="5" ry="5"/>
    </g>
</svg>